<svg width="424" height="279" viewBox="0 0 424 279" fill="none" xmlns="http://www.w3.org/2000/svg">
<path d="M2.45988 46.6467V-4.5876e-05H33.8918V8.13124H12.3222V19.2463H32.2746V27.3776H12.3222V38.5154H33.9829V46.6467H2.45988ZM49.6589 11.6616L56.082 23.8927L62.6644 11.6616H72.6179L62.4822 29.1542L72.8912 46.6467H62.9833L56.082 34.5522L49.2945 46.6467H39.2728L49.6589 29.1542L39.6372 11.6616H49.6589ZM78.3804 59.7661V11.6616H87.9466V17.538H88.3794C88.8045 16.5966 89.4195 15.64 90.2243 14.6682C91.0442 13.6812 92.1071 12.8612 93.413 12.2083C94.7341 11.5402 96.374 11.2061 98.3328 11.2061C100.884 11.2061 103.237 11.8742 105.394 13.2105C107.55 14.5315 109.273 16.5283 110.564 19.2007C111.855 21.858 112.5 25.191 112.5 29.1997C112.5 33.1021 111.87 36.3971 110.609 39.0848C109.364 41.7573 107.664 43.7844 105.507 45.1662C103.366 46.5328 100.967 47.2161 98.31 47.2161C96.4271 47.2161 94.8252 46.9048 93.5041 46.2822C92.1983 45.6597 91.1277 44.8777 90.2926 43.9362C89.4575 42.9796 88.8197 42.0154 88.3794 41.0436H88.0833V59.7661H78.3804ZM87.8783 29.1542C87.8783 31.2344 88.1668 33.049 88.7438 34.5978C89.3208 36.1466 90.1559 37.3538 91.2492 38.2193C92.3425 39.0696 93.6711 39.4948 95.2351 39.4948C96.8143 39.4948 98.1506 39.062 99.2438 38.1965C100.337 37.3158 101.165 36.1011 101.727 34.5522C102.304 32.9882 102.592 31.1889 102.592 29.1542C102.592 27.1346 102.311 25.358 101.749 23.8244C101.187 22.2908 100.36 21.0912 99.2666 20.2257C98.1733 19.3602 96.8295 18.9274 95.2351 18.9274C93.656 18.9274 92.3197 19.345 91.2264 20.1801C90.1483 21.0153 89.3208 22.1997 88.7438 23.7333C88.1668 25.2669 87.8783 27.0739 87.8783 29.1542ZM128.671 -4.5876e-05V46.6467H118.968V-4.5876e-05H128.671ZM152.251 47.33C148.713 47.33 145.653 46.5783 143.072 45.0751C140.506 43.5566 138.524 41.446 137.127 38.7432C135.73 36.0251 135.032 32.8744 135.032 29.2908C135.032 25.6769 135.73 22.5185 137.127 19.8157C138.524 17.0977 140.506 14.987 143.072 13.4838C145.653 11.9653 148.713 11.2061 152.251 11.2061C155.789 11.2061 158.841 11.9653 161.407 13.4838C163.989 14.987 165.978 17.0977 167.375 19.8157C168.772 22.5185 169.47 25.6769 169.47 29.2908C169.47 32.8744 168.772 36.0251 167.375 38.7432C165.978 41.446 163.989 43.5566 161.407 45.0751C158.841 46.5783 155.789 47.33 152.251 47.33ZM152.297 39.8137C153.906 39.8137 155.25 39.3581 156.328 38.4471C157.406 37.5208 158.218 36.2605 158.765 34.6661C159.327 33.0717 159.608 31.2572 159.608 29.2225C159.608 27.1878 159.327 25.3732 158.765 23.7788C158.218 22.1845 157.406 20.9242 156.328 19.9979C155.25 19.0717 153.906 18.6085 152.297 18.6085C150.672 18.6085 149.305 19.0717 148.197 19.9979C147.103 20.9242 146.276 22.1845 145.714 23.7788C145.167 25.3732 144.894 27.1878 144.894 29.2225C144.894 31.2572 145.167 33.0717 145.714 34.6661C146.276 36.2605 147.103 37.5208 148.197 38.4471C149.305 39.3581 150.672 39.8137 152.297 39.8137ZM175.779 46.6467V11.6616H185.186V17.7658H185.551C186.188 15.5944 187.259 13.9545 188.762 12.846C190.265 11.7224 191.996 11.1605 193.955 11.1605C194.441 11.1605 194.965 11.1909 195.527 11.2517C196.089 11.3124 196.582 11.3959 197.007 11.5022V20.1118C196.552 19.9751 195.922 19.8537 195.117 19.7474C194.312 19.6411 193.576 19.5879 192.907 19.5879C191.48 19.5879 190.205 19.8992 189.081 20.5218C187.972 21.1292 187.092 21.9795 186.439 23.0728C185.801 24.1661 185.482 25.4264 185.482 26.8537V46.6467H175.779ZM216.339 47.33C212.74 47.33 209.643 46.6011 207.046 45.1434C204.465 43.6705 202.476 41.5902 201.079 38.9026C199.682 36.1998 198.983 33.0034 198.983 29.3136C198.983 25.7149 199.682 22.5565 201.079 19.8385C202.476 17.1205 204.442 15.0022 206.978 13.4838C209.529 11.9653 212.52 11.2061 215.952 11.2061C218.26 11.2061 220.408 11.5781 222.398 12.3222C224.402 13.051 226.148 14.1519 227.636 15.6248C229.139 17.0977 230.309 18.9502 231.144 21.1823C231.979 23.3992 232.397 25.9958 232.397 28.9719V31.6368H202.855V25.6238H223.263C223.263 24.2268 222.959 22.9893 222.352 21.9112C221.745 20.8331 220.902 19.9903 219.824 19.3829C218.761 18.7604 217.523 18.4491 216.111 18.4491C214.638 18.4491 213.332 18.7907 212.194 19.474C211.07 20.1422 210.189 21.0456 209.551 22.1845C208.914 23.3081 208.587 24.5608 208.572 25.9426V31.6596C208.572 33.3906 208.891 34.8863 209.529 36.1466C210.182 37.4069 211.1 38.3787 212.285 39.062C213.469 39.7453 214.874 40.087 216.498 40.087C217.576 40.087 218.563 39.9351 219.459 39.6314C220.355 39.3278 221.122 38.8722 221.76 38.2648C222.398 37.6575 222.883 36.9134 223.218 36.0327L232.192 36.6249C231.736 38.7811 230.802 40.664 229.39 42.2735C227.993 43.8679 226.186 45.113 223.969 46.0089C221.767 46.8896 219.224 47.33 216.339 47.33ZM263.618 -4.5876e-05V46.6467H253.755V-4.5876e-05H263.618ZM281.253 26.4209V46.6467H271.55V11.6616H280.797V17.8341H281.207C281.981 15.7994 283.28 14.1898 285.102 13.0055C286.924 11.8059 289.133 11.2061 291.73 11.2061C294.159 11.2061 296.278 11.7376 298.085 12.8005C299.892 13.8634 301.296 15.3818 302.298 17.3558C303.3 19.3146 303.802 21.653 303.802 24.371V46.6467H294.099V26.1021C294.114 23.9611 293.567 22.2908 292.459 21.0912C291.35 19.8764 289.824 19.2691 287.881 19.2691C286.575 19.2691 285.421 19.55 284.419 20.1118C283.432 20.6736 282.657 21.4936 282.095 22.5717C281.549 23.6346 281.268 24.9177 281.253 26.4209ZM344.902 11.6616V18.9502H323.834V11.6616H344.902ZM328.617 3.2798H338.32V35.8961C338.32 36.7919 338.456 37.4904 338.73 37.9915C339.003 38.4774 339.383 38.8191 339.868 39.0165C340.37 39.2139 340.947 39.3126 341.6 39.3126C342.055 39.3126 342.511 39.2746 342.966 39.1987C343.422 39.1076 343.771 39.0392 344.014 38.9937L345.54 46.2139C345.054 46.3658 344.371 46.5404 343.49 46.7378C342.609 46.9504 341.539 47.0794 340.278 47.125C337.94 47.2161 335.89 46.9048 334.129 46.1911C332.383 45.4775 331.024 44.369 330.052 42.8657C329.08 41.3625 328.602 39.4644 328.617 37.1716V3.2798ZM361.677 26.4209V46.6467H351.974V-4.5876e-05H361.404V17.8341H361.814C362.603 15.769 363.879 14.1519 365.64 12.9827C367.402 11.7983 369.611 11.2061 372.268 11.2061C374.698 11.2061 376.816 11.7376 378.623 12.8005C380.445 13.8482 381.857 15.3591 382.86 17.333C383.877 19.2918 384.378 21.6378 384.363 24.371V46.6467H374.66V26.1021C374.675 23.9459 374.128 22.268 373.02 21.0684C371.927 19.8688 370.393 19.2691 368.419 19.2691C367.098 19.2691 365.929 19.55 364.911 20.1118C363.909 20.6736 363.12 21.4936 362.543 22.5717C361.981 23.6346 361.692 24.9177 361.677 26.4209ZM407.942 47.33C404.344 47.33 401.246 46.6011 398.649 45.1434C396.068 43.6705 394.079 41.5902 392.682 38.9026C391.285 36.1998 390.587 33.0034 390.587 29.3136C390.587 25.7149 391.285 22.5565 392.682 19.8385C394.079 17.1205 396.045 15.0022 398.581 13.4838C401.132 11.9653 404.124 11.2061 407.555 11.2061C409.863 11.2061 412.012 11.5781 414.001 12.3222C416.005 13.051 417.752 14.1519 419.24 15.6248C420.743 17.0977 421.912 18.9502 422.747 21.1823C423.582 23.3992 424 25.9958 424 28.9719V31.6368H394.459V25.6238H414.867C414.867 24.2268 414.563 22.9893 413.955 21.9112C413.348 20.8331 412.505 19.9903 411.427 19.3829C410.364 18.7604 409.127 18.4491 407.715 18.4491C406.242 18.4491 404.936 18.7907 403.797 19.474C402.673 20.1422 401.793 21.0456 401.155 22.1845C400.517 23.3081 400.191 24.5608 400.176 25.9426V31.6596C400.176 33.3906 400.494 34.8863 401.132 36.1466C401.785 37.4069 402.704 38.3787 403.888 39.062C405.073 39.7453 406.477 40.087 408.102 40.087C409.18 40.087 410.167 39.9351 411.063 39.6314C411.959 39.3278 412.726 38.8722 413.363 38.2648C414.001 37.6575 414.487 36.9134 414.821 36.0327L423.795 36.6249C423.339 38.7811 422.406 40.664 420.993 42.2735C419.596 43.8679 417.79 45.113 415.573 46.0089C413.371 46.8896 410.827 47.33 407.942 47.33ZM2.45988 77.1675H14.6226L27.4687 108.508H28.0154L40.8614 77.1675H53.0242V123.814H43.458V93.4528H43.0708L30.9991 123.586H24.485L12.4133 93.3389H12.0261V123.814H2.45988V77.1675ZM76.9113 124.497C73.3126 124.497 70.2149 123.769 67.6184 122.311C65.037 120.838 63.0478 118.758 61.6509 116.07C60.2539 113.367 59.5554 110.171 59.5554 106.481C59.5554 102.882 60.2539 99.724 61.6509 97.006C63.0478 94.288 65.0142 92.1697 67.55 90.6513C70.101 89.1328 73.0924 88.3736 76.5241 88.3736C78.8321 88.3736 80.9807 88.7456 82.9699 89.4897C84.9742 90.2185 86.7205 91.3194 88.2085 92.7923C89.7118 94.2652 90.881 96.1177 91.7161 98.3498C92.5513 100.567 92.9689 103.163 92.9689 106.139V108.804H63.4275V102.791H83.8354C83.8354 101.394 83.5317 100.157 82.9243 99.0787C82.317 98.0006 81.4742 97.1578 80.3961 96.5505C79.3332 95.9279 78.0957 95.6166 76.6835 95.6166C75.2106 95.6166 73.9048 95.9583 72.7659 96.6416C71.6423 97.3097 70.7616 98.2132 70.1238 99.352C69.4861 100.476 69.1596 101.728 69.1444 103.11V108.827C69.1444 110.558 69.4633 112.054 70.101 113.314C70.754 114.574 71.6726 115.546 72.857 116.23C74.0414 116.913 75.446 117.254 77.0707 117.254C78.1488 117.254 79.1358 117.103 80.0317 116.799C80.9276 116.495 81.6944 116.04 82.3321 115.432C82.9699 114.825 83.4558 114.081 83.7898 113.2L92.7639 113.792C92.3083 115.949 91.3745 117.832 89.9623 119.441C88.5654 121.035 86.7584 122.281 84.5415 123.176C82.3397 124.057 79.7963 124.497 76.9113 124.497ZM117.909 88.8292V96.1177H96.8409V88.8292H117.909ZM101.624 80.4473H111.327V113.064C111.327 113.959 111.464 114.658 111.737 115.159C112.01 115.645 112.39 115.987 112.876 116.184C113.377 116.381 113.954 116.48 114.607 116.48C115.062 116.48 115.518 116.442 115.973 116.366C116.429 116.275 116.778 116.207 117.021 116.161L118.547 123.381C118.061 123.533 117.378 123.708 116.497 123.905C115.617 124.118 114.546 124.247 113.286 124.293C110.947 124.384 108.897 124.072 107.136 123.359C105.39 122.645 104.031 121.537 103.059 120.033C102.087 118.53 101.609 116.632 101.624 114.339V80.4473ZM134.206 124.475C131.974 124.475 129.985 124.088 128.239 123.313C126.492 122.524 125.111 121.362 124.093 119.828C123.091 118.279 122.59 116.351 122.59 114.043C122.59 112.099 122.947 110.467 123.66 109.146C124.374 107.825 125.346 106.762 126.576 105.957C127.806 105.152 129.203 104.545 130.767 104.135C132.346 103.725 134.001 103.437 135.732 103.27C137.767 103.057 139.407 102.86 140.652 102.677C141.897 102.48 142.801 102.191 143.362 101.812C143.924 101.432 144.205 100.87 144.205 100.126V99.9897C144.205 98.5472 143.75 97.4312 142.838 96.6416C141.943 95.852 140.667 95.4572 139.012 95.4572C137.266 95.4572 135.876 95.8444 134.844 96.6188C133.811 97.378 133.128 98.3346 132.794 99.4887L123.82 98.7598C124.275 96.634 125.171 94.7967 126.508 93.2478C127.844 91.6838 129.567 90.4843 131.678 89.6491C133.804 88.7988 136.264 88.3736 139.058 88.3736C141.001 88.3736 142.861 88.6014 144.638 89.0569C146.43 89.5125 148.016 90.2185 149.398 91.1752C150.795 92.1318 151.896 93.3617 152.701 94.865C153.506 96.3531 153.908 98.1372 153.908 100.218V123.814H144.706V118.963H144.433C143.871 120.056 143.119 121.02 142.178 121.855C141.237 122.675 140.105 123.321 138.784 123.791C137.463 124.247 135.937 124.475 134.206 124.475ZM136.985 117.778C138.412 117.778 139.673 117.497 140.766 116.936C141.859 116.359 142.717 115.584 143.34 114.612C143.962 113.641 144.273 112.54 144.273 111.31V107.597C143.97 107.795 143.552 107.977 143.021 108.144C142.504 108.296 141.92 108.44 141.267 108.577C140.614 108.698 139.961 108.812 139.308 108.918C138.655 109.009 138.063 109.093 137.532 109.169C136.393 109.336 135.398 109.602 134.548 109.966C133.697 110.33 133.037 110.824 132.566 111.446C132.095 112.054 131.86 112.813 131.86 113.724C131.86 115.045 132.338 116.055 133.295 116.753C134.267 117.437 135.497 117.778 136.985 117.778ZM192.799 88.8292L180.568 123.814H169.635L157.404 88.8292H167.654L174.919 113.861H175.284L182.527 88.8292H192.799ZM212.581 124.497C208.982 124.497 205.884 123.769 203.288 122.311C200.707 120.838 198.717 118.758 197.32 116.07C195.923 113.367 195.225 110.171 195.225 106.481C195.225 102.882 195.923 99.724 197.32 97.006C198.717 94.288 200.684 92.1697 203.22 90.6513C205.771 89.1328 208.762 88.3736 212.194 88.3736C214.502 88.3736 216.65 88.7456 218.639 89.4897C220.644 90.2185 222.39 91.3194 223.878 92.7923C225.381 94.2652 226.551 96.1177 227.386 98.3498C228.221 100.567 228.638 103.163 228.638 106.139V108.804H199.097V102.791H219.505C219.505 101.394 219.201 100.157 218.594 99.0787C217.986 98.0006 217.144 97.1578 216.066 96.5505C215.003 95.9279 213.765 95.6166 212.353 95.6166C210.88 95.6166 209.574 95.9583 208.435 96.6416C207.312 97.3097 206.431 98.2132 205.793 99.352C205.156 100.476 204.829 101.728 204.814 103.11V108.827C204.814 110.558 205.133 112.054 205.771 113.314C206.423 114.574 207.342 115.546 208.527 116.23C209.711 116.913 211.115 117.254 212.74 117.254C213.818 117.254 214.805 117.103 215.701 116.799C216.597 116.495 217.364 116.04 218.002 115.432C218.639 114.825 219.125 114.081 219.459 113.2L228.433 113.792C227.978 115.949 227.044 117.832 225.632 119.441C224.235 121.035 222.428 122.281 220.211 123.176C218.009 124.057 215.466 124.497 212.581 124.497ZM234.97 123.814V88.8292H244.377V94.9333H244.742C245.379 92.7619 246.45 91.122 247.953 90.0135C249.456 88.8899 251.187 88.3281 253.146 88.3281C253.632 88.3281 254.156 88.3584 254.718 88.4192C255.28 88.4799 255.773 88.5634 256.198 88.6697V97.2793C255.743 97.1427 255.113 97.0212 254.308 96.9149C253.503 96.8086 252.767 96.7555 252.098 96.7555C250.671 96.7555 249.396 97.0667 248.272 97.6893C247.163 98.2967 246.283 99.147 245.63 100.24C244.992 101.334 244.673 102.594 244.673 104.021V123.814H234.97ZM290.323 98.8054L281.441 99.352C281.289 98.5928 280.962 97.9095 280.461 97.3021C279.96 96.6795 279.299 96.186 278.48 95.8216C277.675 95.442 276.711 95.2522 275.587 95.2522C274.084 95.2522 272.816 95.5711 271.783 96.2088C270.751 96.8314 270.234 97.6665 270.234 98.7142C270.234 99.5494 270.568 100.255 271.237 100.832C271.905 101.409 273.051 101.873 274.676 102.222L281.008 103.497C284.409 104.196 286.945 105.319 288.615 106.868C290.285 108.417 291.121 110.452 291.121 112.972C291.121 115.265 290.445 117.277 289.093 119.008C287.757 120.739 285.92 122.091 283.582 123.063C281.258 124.019 278.578 124.497 275.541 124.497C270.91 124.497 267.22 123.533 264.472 121.605C261.739 119.661 260.137 117.019 259.666 113.679L269.209 113.177C269.498 114.59 270.196 115.668 271.305 116.412C272.413 117.141 273.833 117.505 275.564 117.505C277.265 117.505 278.631 117.179 279.664 116.526C280.712 115.858 281.243 115 281.258 113.952C281.243 113.071 280.871 112.35 280.142 111.788C279.413 111.211 278.29 110.771 276.771 110.467L270.713 109.26C267.296 108.577 264.753 107.392 263.082 105.707C261.427 104.021 260.6 101.873 260.6 99.2609C260.6 97.0136 261.207 95.0776 262.422 93.4528C263.652 91.8281 265.375 90.5754 267.592 89.6947C269.824 88.814 272.436 88.3736 275.427 88.3736C279.846 88.3736 283.323 89.3075 285.859 91.1752C288.41 93.0428 289.898 95.5862 290.323 98.8054ZM313.174 124.497C309.575 124.497 306.478 123.769 303.881 122.311C301.3 120.838 299.311 118.758 297.914 116.07C296.517 113.367 295.818 110.171 295.818 106.481C295.818 102.882 296.517 99.724 297.914 97.006C299.311 94.288 301.277 92.1697 303.813 90.6513C306.364 89.1328 309.355 88.3736 312.787 88.3736C315.095 88.3736 317.244 88.7456 319.233 89.4897C321.237 90.2185 322.983 91.3194 324.471 92.7923C325.975 94.2652 327.144 96.1177 327.979 98.3498C328.814 100.567 329.232 103.163 329.232 106.139V108.804H299.69V102.791H320.098C320.098 101.394 319.795 100.157 319.187 99.0787C318.58 98.0006 317.737 97.1578 316.659 96.5505C315.596 95.9279 314.359 95.6166 312.946 95.6166C311.474 95.6166 310.168 95.9583 309.029 96.6416C307.905 97.3097 307.024 98.2132 306.387 99.352C305.749 100.476 305.422 101.728 305.407 103.11V108.827C305.407 110.558 305.726 112.054 306.364 113.314C307.017 114.574 307.936 115.546 309.12 116.23C310.304 116.913 311.709 117.254 313.334 117.254C314.412 117.254 315.399 117.103 316.295 116.799C317.19 116.495 317.957 116.04 318.595 115.432C319.233 114.825 319.719 114.081 320.053 113.2L329.027 113.792C328.571 115.949 327.637 117.832 326.225 119.441C324.828 121.035 323.021 122.281 320.804 123.176C318.603 124.057 316.059 124.497 313.174 124.497ZM45.3257 177.658C45.3257 182.745 44.3615 187.073 42.433 190.641C40.5198 194.209 37.908 196.935 34.5978 198.818C31.3028 200.686 27.5978 201.619 23.4828 201.619C19.3374 201.619 15.6172 200.678 12.3222 198.795C9.02717 196.912 6.42303 194.187 4.50979 190.618C2.59654 187.05 1.63992 182.73 1.63992 177.658C1.63992 172.572 2.59654 168.244 4.50979 164.676C6.42303 161.107 9.02717 158.389 12.3222 156.522C15.6172 154.639 19.3374 153.697 23.4828 153.697C27.5978 153.697 31.3028 154.639 34.5978 156.522C37.908 158.389 40.5198 161.107 42.433 164.676C44.3615 168.244 45.3257 172.572 45.3257 177.658ZM35.3267 177.658C35.3267 174.363 34.8332 171.585 33.8462 169.322C32.8744 167.06 31.5002 165.344 29.7236 164.175C27.947 163.005 25.8668 162.421 23.4828 162.421C21.0988 162.421 19.0186 163.005 17.242 164.175C15.4654 165.344 14.0836 167.06 13.0966 169.322C12.1248 171.585 11.6389 174.363 11.6389 177.658C11.6389 180.953 12.1248 183.732 13.0966 185.995C14.0836 188.257 15.4654 189.973 17.242 191.142C19.0186 192.311 21.0988 192.896 23.4828 192.896C25.8668 192.896 27.947 192.311 29.7236 191.142C31.5002 189.973 32.8744 188.257 33.8462 185.995C34.8332 183.732 35.3267 180.953 35.3267 177.658ZM62.152 180.756V200.982H52.4491V165.997H61.6964V172.169H62.1064C62.8808 170.134 64.1791 168.525 66.0012 167.34C67.8234 166.141 70.0327 165.541 72.6293 165.541C75.0588 165.541 77.177 166.073 78.984 167.136C80.7909 168.198 82.1955 169.717 83.1977 171.691C84.1998 173.65 84.7009 175.988 84.7009 178.706V200.982H74.998V180.437C75.0132 178.296 74.4666 176.626 73.3581 175.426C72.2496 174.211 70.7236 173.604 68.78 173.604C67.4741 173.604 66.3201 173.885 65.3179 174.447C64.3309 175.009 63.5565 175.829 62.9947 176.907C62.4481 177.97 62.1672 179.253 62.152 180.756ZM108.292 201.665C104.693 201.665 101.596 200.936 98.999 199.478C96.4176 198.006 94.4285 195.925 93.0315 193.238C91.6345 190.535 90.936 187.338 90.936 183.649C90.936 180.05 91.6345 176.892 93.0315 174.174C94.4285 171.455 96.3949 169.337 98.9307 167.819C101.482 166.3 104.473 165.541 107.905 165.541C110.213 165.541 112.361 165.913 114.351 166.657C116.355 167.386 118.101 168.487 119.589 169.96C121.092 171.433 122.262 173.285 123.097 175.517C123.932 177.734 124.349 180.331 124.349 183.307V185.972H94.8081V179.959H115.216C115.216 178.562 114.912 177.324 114.305 176.246C113.698 175.168 112.855 174.325 111.777 173.718C110.714 173.095 109.476 172.784 108.064 172.784C106.591 172.784 105.285 173.126 104.147 173.809C103.023 174.477 102.142 175.381 101.504 176.52C100.867 177.643 100.54 178.896 100.525 180.278V185.995C100.525 187.726 100.844 189.221 101.482 190.482C102.135 191.742 103.053 192.714 104.238 193.397C105.422 194.08 106.827 194.422 108.451 194.422C109.529 194.422 110.516 194.27 111.412 193.966C112.308 193.663 113.075 193.207 113.713 192.6C114.351 191.992 114.836 191.248 115.17 190.368L124.144 190.96C123.689 193.116 122.755 194.999 121.343 196.609C119.946 198.203 118.139 199.448 115.922 200.344C113.72 201.225 111.177 201.665 108.292 201.665Z" fill="url(#paint0_linear_12_19)"/>
<path d="M146.255 200.982V154.335H163.748C167.331 154.335 170.338 155.003 172.767 156.339C175.212 157.676 177.057 159.513 178.302 161.851C179.562 164.175 180.192 166.817 180.192 169.778C180.192 172.769 179.562 175.426 178.302 177.749C177.042 180.073 175.181 181.902 172.722 183.239C170.262 184.56 167.232 185.22 163.634 185.22H152.04V178.273H162.495C164.59 178.273 166.306 177.909 167.642 177.18C168.979 176.451 169.966 175.449 170.603 174.174C171.256 172.898 171.583 171.433 171.583 169.778C171.583 168.123 171.256 166.665 170.603 165.404C169.966 164.144 168.971 163.165 167.62 162.466C166.283 161.753 164.56 161.396 162.449 161.396H154.705V200.982H146.255ZM187.168 200.982V165.997H195.413V200.982H187.168ZM191.313 161.031C190.007 161.031 188.884 160.599 187.942 159.733C187.001 158.852 186.53 157.797 186.53 156.567C186.53 155.322 187.001 154.267 187.942 153.401C188.884 152.52 190.007 152.08 191.313 152.08C192.634 152.08 193.758 152.52 194.684 153.401C195.625 154.267 196.096 155.322 196.096 156.567C196.096 157.797 195.625 158.852 194.684 159.733C193.758 160.599 192.634 161.031 191.313 161.031ZM210.633 165.997L217.694 178.911L224.869 165.997H233.592L223.047 183.489L233.775 200.982H225.097L217.694 188.386L210.36 200.982H201.614L212.273 183.489L201.887 165.997H210.633ZM254.143 201.665C250.635 201.665 247.606 200.936 245.055 199.478C242.519 198.006 240.568 195.925 239.201 193.238C237.834 190.535 237.151 187.354 237.151 183.694C237.151 180.095 237.834 176.937 239.201 174.219C240.583 171.486 242.511 169.36 244.986 167.842C247.461 166.308 250.369 165.541 253.71 165.541C255.866 165.541 257.901 165.89 259.814 166.589C261.742 167.272 263.443 168.335 264.916 169.778C266.404 171.22 267.573 173.057 268.424 175.29C269.274 177.507 269.699 180.149 269.699 183.216V185.744H241.023V180.187H261.796C261.78 178.607 261.439 177.203 260.771 175.973C260.103 174.728 259.169 173.748 257.969 173.035C256.785 172.321 255.403 171.964 253.824 171.964C252.138 171.964 250.658 172.374 249.382 173.194C248.107 173.999 247.112 175.062 246.399 176.383C245.7 177.689 245.343 179.124 245.328 180.688V185.539C245.328 187.574 245.7 189.32 246.444 190.778C247.188 192.22 248.228 193.329 249.564 194.103C250.901 194.862 252.465 195.242 254.256 195.242C255.456 195.242 256.542 195.075 257.514 194.741C258.485 194.392 259.328 193.883 260.042 193.215C260.755 192.547 261.295 191.719 261.659 190.732L269.357 191.598C268.872 193.632 267.945 195.409 266.579 196.927C265.227 198.431 263.496 199.6 261.386 200.435C259.275 201.255 256.861 201.665 254.143 201.665ZM284.92 154.335V200.982H276.674V154.335H284.92ZM319.375 201.688C317.158 201.688 315.161 201.293 313.385 200.503C311.623 199.699 310.226 198.514 309.194 196.95C308.177 195.386 307.668 193.458 307.668 191.165C307.668 189.191 308.032 187.559 308.761 186.268C309.49 184.977 310.485 183.945 311.745 183.17C313.005 182.396 314.425 181.811 316.004 181.417C317.599 181.007 319.246 180.71 320.947 180.528C322.997 180.316 324.659 180.126 325.935 179.959C327.21 179.777 328.137 179.503 328.714 179.139C329.306 178.759 329.602 178.175 329.602 177.385V177.248C329.602 175.533 329.093 174.204 328.076 173.262C327.058 172.321 325.593 171.85 323.68 171.85C321.66 171.85 320.058 172.291 318.874 173.171C317.705 174.052 316.915 175.092 316.505 176.292L308.807 175.198C309.414 173.073 310.416 171.296 311.813 169.869C313.21 168.426 314.918 167.348 316.938 166.634C318.958 165.906 321.19 165.541 323.634 165.541C325.32 165.541 326.998 165.739 328.668 166.133C330.338 166.528 331.864 167.181 333.246 168.092C334.628 168.988 335.736 170.21 336.572 171.759C337.422 173.308 337.847 175.244 337.847 177.567V200.982H329.921V196.176H329.647C329.146 197.148 328.44 198.059 327.529 198.909C326.633 199.744 325.502 200.42 324.135 200.936C322.784 201.437 321.197 201.688 319.375 201.688ZM321.516 195.629C323.171 195.629 324.606 195.303 325.821 194.65C327.036 193.982 327.97 193.101 328.622 192.008C329.291 190.914 329.625 189.722 329.625 188.432V184.309C329.367 184.522 328.926 184.719 328.304 184.901C327.696 185.084 327.013 185.243 326.254 185.38C325.494 185.516 324.743 185.638 323.999 185.744C323.255 185.85 322.609 185.941 322.063 186.017C320.833 186.184 319.732 186.458 318.76 186.837C317.788 187.217 317.022 187.748 316.46 188.432C315.898 189.1 315.617 189.965 315.617 191.028C315.617 192.547 316.171 193.693 317.28 194.468C318.388 195.242 319.8 195.629 321.516 195.629ZM363.608 165.997V172.374H343.496V165.997H363.608ZM348.461 157.615H356.706V190.459C356.706 191.567 356.873 192.418 357.207 193.01C357.557 193.587 358.012 193.982 358.574 194.194C359.136 194.407 359.758 194.513 360.442 194.513C360.958 194.513 361.429 194.475 361.854 194.399C362.294 194.323 362.628 194.255 362.856 194.194L364.245 200.64C363.805 200.792 363.175 200.959 362.355 201.141C361.55 201.323 360.563 201.43 359.394 201.46C357.329 201.521 355.469 201.209 353.814 200.526C352.158 199.828 350.845 198.75 349.873 197.292C348.917 195.834 348.446 194.012 348.461 191.825V157.615ZM396.48 201.688C394.263 201.688 392.266 201.293 390.49 200.503C388.728 199.699 387.331 198.514 386.299 196.95C385.281 195.386 384.773 193.458 384.773 191.165C384.773 189.191 385.137 187.559 385.866 186.268C386.595 184.977 387.59 183.945 388.85 183.17C390.11 182.396 391.53 181.811 393.109 181.417C394.703 181.007 396.351 180.71 398.052 180.528C400.102 180.316 401.764 180.126 403.04 179.959C404.315 179.777 405.241 179.503 405.818 179.139C406.411 178.759 406.707 178.175 406.707 177.385V177.248C406.707 175.533 406.198 174.204 405.181 173.262C404.163 172.321 402.698 171.85 400.785 171.85C398.765 171.85 397.163 172.291 395.979 173.171C394.81 174.052 394.02 175.092 393.61 176.292L385.912 175.198C386.519 173.073 387.521 171.296 388.918 169.869C390.315 168.426 392.023 167.348 394.043 166.634C396.062 165.906 398.295 165.541 400.739 165.541C402.425 165.541 404.103 165.739 405.773 166.133C407.443 166.528 408.969 167.181 410.351 168.092C411.733 168.988 412.841 170.21 413.676 171.759C414.527 173.308 414.952 175.244 414.952 177.567V200.982H407.026V196.176H406.752C406.251 197.148 405.545 198.059 404.634 198.909C403.738 199.744 402.607 200.42 401.24 200.936C399.889 201.437 398.302 201.688 396.48 201.688ZM398.621 195.629C400.276 195.629 401.711 195.303 402.926 194.65C404.141 193.982 405.074 193.101 405.727 192.008C406.395 190.914 406.73 189.722 406.73 188.432V184.309C406.471 184.522 406.031 184.719 405.408 184.901C404.801 185.084 404.118 185.243 403.359 185.38C402.599 185.516 401.848 185.638 401.104 185.744C400.36 185.85 399.714 185.941 399.168 186.017C397.938 186.184 396.837 186.458 395.865 186.837C394.893 187.217 394.126 187.748 393.565 188.432C393.003 189.1 392.722 189.965 392.722 191.028C392.722 192.547 393.276 193.693 394.385 194.468C395.493 195.242 396.905 195.629 398.621 195.629ZM20.1118 243.164V249.542H-2.74778e-06V243.164H20.1118ZM4.96532 234.782H13.2105V267.626C13.2105 268.735 13.3775 269.585 13.7116 270.177C14.0608 270.754 14.5164 271.149 15.0782 271.362C15.64 271.574 16.2626 271.681 16.9459 271.681C17.4621 271.681 17.9329 271.643 18.358 271.567C18.7984 271.491 19.1324 271.423 19.3602 271.362L20.7496 277.808C20.3092 277.959 19.6791 278.126 18.8591 278.309C18.0543 278.491 17.0674 278.597 15.8981 278.628C13.8331 278.688 11.973 278.377 10.3179 277.694C8.66274 276.995 7.34928 275.917 6.37748 274.459C5.42086 273.002 4.95014 271.18 4.96532 268.993V234.782ZM27.0075 278.149V243.164H35.2527V278.149H27.0075ZM31.1529 238.199C29.847 238.199 28.7233 237.766 27.7819 236.901C26.8405 236.02 26.3697 234.965 26.3697 233.735C26.3697 232.49 26.8405 231.434 27.7819 230.569C28.7233 229.688 29.847 229.248 31.1529 229.248C32.4739 229.248 33.5976 229.688 34.5238 230.569C35.4652 231.434 35.936 232.49 35.936 233.735C35.936 234.965 35.4652 236.02 34.5238 236.901C33.5976 237.766 32.4739 238.199 31.1529 238.199ZM43.7313 278.149V243.164H51.612V249.109H52.022C52.7509 247.105 53.958 245.541 55.6435 244.417C57.329 243.278 59.3409 242.709 61.6793 242.709C64.0481 242.709 66.0449 243.286 67.6696 244.44C69.3095 245.579 70.4636 247.135 71.1317 249.109H71.4961C72.2705 247.165 73.5764 245.616 75.4137 244.462C77.2662 243.293 79.4604 242.709 81.9962 242.709C85.2153 242.709 87.8422 243.726 89.8769 245.761C91.9116 247.795 92.929 250.764 92.929 254.666V278.149H84.6611V255.942C84.6611 253.771 84.084 252.184 82.93 251.182C81.776 250.164 80.3638 249.656 78.6936 249.656C76.7044 249.656 75.148 250.278 74.0243 251.523C72.9159 252.753 72.3616 254.355 72.3616 256.329V278.149H64.2759V255.6C64.2759 253.793 63.7293 252.351 62.636 251.273C61.5579 250.195 60.1457 249.656 58.3995 249.656C57.2151 249.656 56.137 249.959 55.1652 250.567C54.1934 251.159 53.419 252.002 52.842 253.095C52.265 254.173 51.9765 255.433 51.9765 256.876V278.149H43.7313ZM116.782 278.833C113.274 278.833 110.245 278.104 107.694 276.646C105.158 275.173 103.207 273.093 101.84 270.405C100.474 267.702 99.7905 264.521 99.7905 260.862C99.7905 257.263 100.474 254.105 101.84 251.387C103.222 248.653 105.151 246.528 107.626 245.009C110.101 243.475 113.009 242.709 116.349 242.709C118.505 242.709 120.54 243.058 122.453 243.756C124.382 244.44 126.082 245.503 127.555 246.945C129.043 248.388 130.213 250.225 131.063 252.457C131.913 254.674 132.338 257.316 132.338 260.383V262.912H103.663V257.354H124.435C124.42 255.775 124.078 254.37 123.41 253.14C122.742 251.895 121.808 250.916 120.608 250.202C119.424 249.489 118.042 249.132 116.463 249.132C114.778 249.132 113.297 249.542 112.022 250.362C110.746 251.166 109.752 252.229 109.038 253.55C108.339 254.856 107.983 256.291 107.967 257.855V262.707C107.967 264.741 108.339 266.488 109.083 267.945C109.827 269.388 110.868 270.496 112.204 271.271C113.54 272.03 115.104 272.409 116.896 272.409C118.095 272.409 119.181 272.242 120.153 271.908C121.125 271.559 121.967 271.05 122.681 270.382C123.395 269.714 123.934 268.887 124.298 267.9L131.997 268.765C131.511 270.8 130.585 272.577 129.218 274.095C127.867 275.598 126.136 276.767 124.025 277.603C121.914 278.423 119.5 278.833 116.782 278.833Z" fill="white"/>
<defs>
<linearGradient id="paint0_linear_12_19" x1="18.3879" y1="57.9847" x2="287.013" y2="64.4203" gradientUnits="userSpaceOnUse">
<stop stop-color="#31DAFF"/>
<stop offset="0.892859" stop-color="#D102D6" stop-opacity="0.8"/>
</linearGradient>
</defs>
</svg>
