<svg width="535" height="62" viewBox="0 0 535 62" fill="none" xmlns="http://www.w3.org/2000/svg">
<path d="M2.2201e-05 10.3767V2.2528H38.2757V10.3767H24.0076V48.8572H14.2681V10.3767H2.2201e-05ZM55.1208 49.5398C51.586 49.5398 48.5292 48.7889 45.9501 47.287C43.3863 45.7699 41.4065 43.6612 40.0108 40.9608C38.6151 38.2453 37.9173 35.0973 37.9173 31.5171C37.9173 27.9064 38.6151 24.7509 40.0108 22.0505C41.4065 19.335 43.3863 17.2263 45.9501 15.7244C48.5292 14.2073 51.586 13.4488 55.1208 13.4488C58.6556 13.4488 61.7049 14.2073 64.2687 15.7244C66.8478 17.2263 68.8351 19.335 70.2308 22.0505C71.6265 24.7509 72.3244 27.9064 72.3244 31.5171C72.3244 35.0973 71.6265 38.2453 70.2308 40.9608C68.8351 43.6612 66.8478 45.7699 64.2687 47.287C61.7049 48.7889 58.6556 49.5398 55.1208 49.5398ZM55.1663 42.0303C56.7744 42.0303 58.117 41.5752 59.1941 40.665C60.2713 39.7396 61.0829 38.4804 61.629 36.8875C62.1904 35.2946 62.471 33.4817 62.471 31.4488C62.471 29.4159 62.1904 27.603 61.629 26.0101C61.0829 24.4172 60.2713 23.158 59.1941 22.2326C58.117 21.3072 56.7744 20.8445 55.1663 20.8445C53.5431 20.8445 52.1777 21.3072 51.0702 22.2326C49.978 23.158 49.1512 24.4172 48.5898 26.0101C48.0437 27.603 47.7706 29.4159 47.7706 31.4488C47.7706 33.4817 48.0437 35.2946 48.5898 36.8875C49.1512 38.4804 49.978 39.7396 51.0702 40.665C52.1777 41.5752 53.5431 42.0303 55.1663 42.0303ZM101.042 33.9747V13.9039H110.737V48.8572H101.429V42.5082H101.065C100.276 44.5563 98.9641 46.2023 97.1284 47.4463C95.308 48.6903 93.0855 49.3123 90.4609 49.3123C88.1246 49.3123 86.069 48.7813 84.294 47.7194C82.5191 46.6574 81.131 45.1479 80.1297 43.1909C79.1436 41.2339 78.643 38.89 78.6278 36.1593V13.9039H88.3219V34.4298C88.337 36.493 88.8908 38.1239 89.9831 39.3224C91.0753 40.5209 92.5393 41.1201 94.375 41.1201C95.5431 41.1201 96.6354 40.8546 97.6518 40.3236C98.6683 39.7775 99.4875 38.9734 100.109 37.9115C100.747 36.8496 101.058 35.5373 101.042 33.9747ZM134.283 49.5398C130.703 49.5398 127.623 48.7813 125.044 47.2642C122.481 45.732 120.508 43.6081 119.128 40.8925C117.762 38.177 117.08 35.0518 117.08 31.5171C117.08 27.9368 117.77 24.7964 119.151 22.0961C120.546 19.3805 122.526 17.2642 125.09 15.7471C127.654 14.2149 130.703 13.4488 134.238 13.4488C137.287 13.4488 139.957 14.0025 142.248 15.11C144.539 16.2174 146.352 17.7724 147.687 19.7749C149.022 21.7775 149.757 24.1289 149.894 26.8293H140.746C140.488 25.0847 139.805 23.6814 138.698 22.6194C137.606 21.5423 136.172 21.0038 134.397 21.0038C132.895 21.0038 131.583 21.4134 130.46 22.2326C129.353 23.0366 128.488 24.2124 127.866 25.7598C127.244 27.3072 126.933 29.1808 126.933 31.3805C126.933 33.6106 127.237 35.5069 127.843 37.0695C128.465 38.6321 129.338 39.823 130.46 40.6422C131.583 41.4614 132.895 41.8711 134.397 41.8711C135.505 41.8711 136.498 41.6435 137.378 41.1884C138.273 40.7332 139.009 40.0733 139.586 39.2086C140.177 38.3287 140.564 37.2743 140.746 36.0455H149.894C149.742 38.7155 149.014 41.067 147.709 43.0999C146.42 45.1176 144.637 46.6953 142.362 47.8331C140.086 48.9709 137.393 49.5398 134.283 49.5398ZM165.795 28.6498V48.8572H156.101V2.2528H165.522V20.0708H165.931C166.72 18.0076 167.995 16.3919 169.754 15.2237C171.514 14.0404 173.721 13.4488 176.376 13.4488C178.804 13.4488 180.92 13.9797 182.725 15.0417C184.546 16.0885 185.957 17.598 186.958 19.5701C187.974 21.5272 188.475 23.871 188.46 26.6018V48.8572H178.766V28.3312C178.781 26.177 178.235 24.5006 177.127 23.3021C176.035 22.1036 174.503 21.5044 172.531 21.5044C171.211 21.5044 170.043 21.7851 169.026 22.3464C168.025 22.9077 167.236 23.7269 166.659 24.804C166.098 25.866 165.81 27.1479 165.795 28.6498ZM229.512 13.9039V21.1858H208.462V13.9039H229.512ZM213.241 5.52967H222.935V38.1163C222.935 39.0114 223.072 39.7092 223.345 40.2099C223.618 40.6953 223.997 41.0367 224.483 41.2339C224.983 41.4311 225.56 41.5297 226.212 41.5297C226.667 41.5297 227.122 41.4918 227.577 41.4159C228.033 41.3249 228.381 41.2566 228.624 41.2111L230.149 48.4248C229.663 48.5765 228.981 48.751 228.101 48.9482C227.221 49.1606 226.151 49.2895 224.892 49.335C222.556 49.4261 220.508 49.1151 218.748 48.402C217.003 47.689 215.646 46.5815 214.675 45.0797C213.704 43.5778 213.226 41.6814 213.241 39.3906V5.52967ZM246.271 28.6498V48.8572H236.577V2.2528H245.998V20.0708H246.408C247.197 18.0076 248.471 16.3919 250.231 15.2237C251.991 14.0404 254.198 13.4488 256.853 13.4488C259.28 13.4488 261.397 13.9797 263.202 15.0417C265.022 16.0885 266.433 17.598 267.435 19.5701C268.451 21.5272 268.952 23.871 268.936 26.6018V48.8572H259.242V28.3312C259.258 26.177 258.711 24.5006 257.604 23.3021C256.512 22.1036 254.979 21.5044 253.007 21.5044C251.687 21.5044 250.519 21.7851 249.503 22.3464C248.502 22.9077 247.713 23.7269 247.136 24.804C246.575 25.866 246.287 27.1479 246.271 28.6498ZM292.495 49.5398C288.899 49.5398 285.804 48.8116 283.21 47.3553C280.631 45.8837 278.644 43.8053 277.248 41.1201C275.852 38.4197 275.155 35.2263 275.155 31.5398C275.155 27.9444 275.852 24.7889 277.248 22.0733C278.644 19.3578 280.608 17.2414 283.142 15.7244C285.691 14.2073 288.679 13.4488 292.108 13.4488C294.414 13.4488 296.56 13.8205 298.548 14.5638C300.55 15.292 302.295 16.3919 303.782 17.8634C305.284 19.335 306.452 21.1858 307.286 23.4159C308.12 25.6308 308.538 28.225 308.538 31.1985V33.8609H279.023V27.8533H299.412C299.412 26.4576 299.109 25.2212 298.502 24.1441C297.895 23.067 297.053 22.225 295.976 21.6182C294.914 20.9962 293.678 20.6852 292.267 20.6852C290.796 20.6852 289.491 21.0265 288.353 21.7092C287.23 22.3767 286.351 23.2794 285.713 24.4172C285.076 25.5398 284.75 26.7914 284.735 28.1719V33.8837C284.735 35.6131 285.053 37.1075 285.691 38.3666C286.343 39.6258 287.261 40.5967 288.444 41.2794C289.627 41.9621 291.031 42.3034 292.654 42.3034C293.731 42.3034 294.717 42.1517 295.612 41.8483C296.507 41.5449 297.273 41.0898 297.911 40.4829C298.548 39.8761 299.033 39.1327 299.367 38.2528L308.333 38.8445C307.878 40.9987 306.945 42.8799 305.534 44.488C304.138 46.0809 302.333 47.3249 300.118 48.22C297.918 49.0999 295.377 49.5398 292.495 49.5398Z" fill="url(#paint0_linear_18_3)"/>
<path d="M330.423 48.8572V2.2528H347.9C351.48 2.2528 354.484 2.8748 356.911 4.1188C359.354 5.36279 361.197 7.10742 362.441 9.35268C363.7 11.5828 364.33 14.1845 364.33 17.158C364.33 20.1466 363.693 22.7408 362.418 24.9406C361.159 27.1251 359.301 28.8167 356.843 30.0152C354.385 31.1985 351.366 31.7901 347.786 31.7901H335.339V24.7813H346.648C348.742 24.7813 350.456 24.493 351.791 23.9165C353.126 23.3249 354.112 22.4677 354.749 21.3451C355.402 20.2073 355.728 18.8116 355.728 17.158C355.728 15.5044 355.402 14.0935 354.749 12.9254C354.097 11.7421 353.103 10.847 351.768 10.2402C350.433 9.61817 348.712 9.30717 346.603 9.30717H338.866V48.8572H330.423ZM354.499 27.7396L366.036 48.8572H356.615L345.283 27.7396H354.499ZM386.71 49.5398C383.206 49.5398 380.179 48.8116 377.631 47.3553C375.097 45.8837 373.148 43.8053 371.782 41.1201C370.417 38.4197 369.734 35.2415 369.734 31.5853C369.734 27.9899 370.417 24.8344 371.782 22.1188C373.163 19.3881 375.09 17.2642 377.562 15.7471C380.035 14.2149 382.94 13.4488 386.278 13.4488C388.432 13.4488 390.465 13.7977 392.377 14.4955C394.303 15.1782 396.002 16.2402 397.474 17.6814C398.961 19.1226 400.129 20.9583 400.978 23.1883C401.828 25.4033 402.253 28.043 402.253 31.1074V33.6334H373.603V28.0809H394.356C394.341 26.5031 394 25.0999 393.332 23.871C392.665 22.627 391.732 21.6485 390.533 20.9355C389.35 20.2225 387.969 19.866 386.392 19.866C384.708 19.866 383.229 20.2756 381.954 21.0948C380.68 21.8988 379.686 22.9608 378.973 24.2806C378.275 25.5853 377.919 27.0189 377.904 28.5815V33.4286C377.904 35.4614 378.275 37.2061 379.019 38.6625C379.762 40.1037 380.801 41.2111 382.136 41.9848C383.471 42.7434 385.034 43.1226 386.824 43.1226C388.023 43.1226 389.107 42.9558 390.078 42.622C391.049 42.2731 391.891 41.7649 392.604 41.0973C393.317 40.4298 393.856 39.603 394.22 38.6169L401.911 39.4817C401.426 41.5145 400.5 43.2895 399.135 44.8066C397.785 46.3085 396.055 47.4766 393.947 48.311C391.838 49.1302 389.426 49.5398 386.71 49.5398ZM419.28 49.5626C417.065 49.5626 415.07 49.1682 413.295 48.3793C411.535 47.5752 410.14 46.3919 409.108 44.8293C408.091 43.2668 407.583 41.3401 407.583 39.0493C407.583 37.0771 407.947 35.4463 408.676 34.1568C409.404 32.8672 410.397 31.8356 411.657 31.0619C412.916 30.2882 414.334 29.7042 415.912 29.3097C417.505 28.9001 419.151 28.6043 420.85 28.4222C422.898 28.2098 424.559 28.0202 425.834 27.8533C427.108 27.6713 428.033 27.3982 428.61 27.0341C429.202 26.6549 429.497 26.0708 429.497 25.2819V25.1454C429.497 23.4311 428.989 22.1036 427.973 21.1631C426.956 20.2225 425.492 19.7522 423.581 19.7522C421.563 19.7522 419.963 20.1921 418.779 21.072C417.611 21.9519 416.822 22.9911 416.413 24.1896L408.721 23.0973C409.328 20.9734 410.329 19.1985 411.725 17.7724C413.121 16.3312 414.827 15.2541 416.845 14.5411C418.863 13.8129 421.093 13.4488 423.535 13.4488C425.219 13.4488 426.896 13.646 428.564 14.0404C430.233 14.4349 431.758 15.0872 433.138 15.9974C434.519 16.8925 435.626 18.1138 436.461 19.6612C437.31 21.2086 437.735 23.1428 437.735 25.464V48.8572H429.816V44.0556H429.543C429.042 45.0266 428.337 45.9368 427.427 46.7864C426.531 47.6207 425.401 48.2958 424.036 48.8116C422.686 49.3123 421.1 49.5626 419.28 49.5626ZM421.419 43.5095C423.073 43.5095 424.506 43.1833 425.72 42.531C426.933 41.8635 427.866 40.9836 428.519 39.8913C429.186 38.799 429.52 37.6081 429.52 36.3186V32.1997C429.262 32.4121 428.822 32.6093 428.2 32.7914C427.593 32.9734 426.911 33.1327 426.152 33.2693C425.394 33.4058 424.643 33.5272 423.899 33.6334C423.156 33.7396 422.511 33.8306 421.965 33.9064C420.736 34.0733 419.636 34.3464 418.665 34.7257C417.695 35.1049 416.928 35.6359 416.367 36.3186C415.806 36.9861 415.525 37.8508 415.525 38.9128C415.525 40.4298 416.079 41.5752 417.186 42.3489C418.294 43.1226 419.705 43.5095 421.419 43.5095ZM454.256 2.2528V48.8572H446.018V2.2528H454.256ZM462.727 48.8572V13.9039H470.965V48.8572H462.727ZM466.868 8.94308C465.564 8.94308 464.441 8.51071 463.501 7.64598C462.56 6.76608 462.09 5.71172 462.09 4.48289C462.09 3.2389 462.56 2.18453 463.501 1.3198C464.441 0.439903 465.564 -4.58343e-05 466.868 -4.58343e-05C468.188 -4.58343e-05 469.311 0.439903 470.236 1.3198C471.177 2.18453 471.647 3.2389 471.647 4.48289C471.647 5.71172 471.177 6.76608 470.236 7.64598C469.311 8.51071 468.188 8.94308 466.868 8.94308ZM496.889 13.9039V20.2756H476.796V13.9039H496.889ZM481.757 5.52967H489.994V38.3439C489.994 39.4513 490.161 40.3009 490.495 40.8925C490.844 41.469 491.299 41.8635 491.86 42.0759C492.422 42.2882 493.044 42.3944 493.726 42.3944C494.242 42.3944 494.712 42.3565 495.137 42.2807C495.577 42.2048 495.911 42.1365 496.138 42.0759L497.526 48.5158C497.087 48.6675 496.457 48.8344 495.638 49.0164C494.834 49.1985 493.848 49.3047 492.679 49.335C490.616 49.3957 488.758 49.0847 487.104 48.402C485.451 47.7042 484.138 46.6271 483.167 45.1707C482.212 43.7143 481.741 41.8938 481.757 39.7092V5.52967ZM508.899 61.9646C507.776 61.9646 506.737 61.8736 505.781 61.6916C504.841 61.5247 504.09 61.3275 503.528 61.0999L505.44 54.6827C506.638 55.0316 507.708 55.1985 508.648 55.1833C509.589 55.1682 510.416 54.8723 511.129 54.2958C511.857 53.7345 512.472 52.7939 512.972 51.4741L513.678 49.5853L501.002 13.9039H509.741L517.796 40.3009H518.161L526.239 13.9039H535L521.005 53.0898C520.353 54.9406 519.488 56.5259 518.411 57.8458C517.334 59.1808 516.014 60.1972 514.451 60.8951C512.904 61.6081 511.053 61.9646 508.899 61.9646Z" fill="white"/>
<defs>
<linearGradient id="paint0_linear_18_3" x1="25.06" y1="7.10289" x2="387.656" y2="50.0625" gradientUnits="userSpaceOnUse">
<stop stop-color="#31DAFF"/>
<stop offset="0.892859" stop-color="#D102D6" stop-opacity="0.8"/>
</linearGradient>
</defs>
</svg>
